<?xml version="1.0" encoding="utf-8"?>
<!-- Generator: Adobe Illustrator 22.1.0, SVG Export Plug-In . SVG Version: 6.00 Build 0)  -->
<svg version="1.1" id="Слой_1" xmlns="http://www.w3.org/2000/svg" xmlns:xlink="http://www.w3.org/1999/xlink" x="0px" y="0px"
	 viewBox="0 0 308.1 162.4" style="enable-background:new 0 0 308.1 162.4;" xml:space="preserve">
<style type="text/css">
	.st0{fill:url(#SVGID_1_);}
	.st1{fill:url(#SVGID_2_);}
	.st2{fill:url(#SVGID_3_);}
	.st3{fill:#0D0733;}
</style>
<g>
	<g>
		<linearGradient id="SVGID_1_" gradientUnits="userSpaceOnUse" x1="177.8084" y1="40.1515" x2="177.8084" y2="10.3871">
			<stop  offset="0" style="stop-color:#B3B3B3"/>
			<stop  offset="1" style="stop-color:#666666"/>
		</linearGradient>
		<path class="st0" d="M195.4,29.5c0.5-3.1,0.1-5.6-1.5-7.2c-3.9-3.8-13.4-1-23.8,6.5c0,0,0,0,0,0c-3.8,2.7-7.8,6-11.6,9.9
			c-0.5,0.5-1,1-1.5,1.5l0.7-11.4c3.8-3.6,6.9-6.1,10.7-8.8c0,0,0,0,0,0c12.3-8.7,23.5-12.1,28-7.6C199.7,15.5,199,21.8,195.4,29.5z
			"/>
		<linearGradient id="SVGID_2_" gradientUnits="userSpaceOnUse" x1="169.2787" y1="97.4891" x2="169.2787" y2="1.2063">
			<stop  offset="0" style="stop-color:#066CAE"/>
			<stop  offset="1" style="stop-color:#011F7A"/>
		</linearGradient>
		<path class="st1" d="M185.9,66c-24.9,24.9-52.6,37.7-61.8,28.5c-5.9-5.9-2.7-19.4,6.8-34.8l0.4,0.7c-5.3,10.4-6.6,19.1-2.5,23.2
			c7.6,7.6,30.5-3,51.2-23.7c20.7-20.7,31.3-43.6,23.7-51.2c-4.3-4.3-13.3-2.8-24.1,2.9l-0.3-0.5c15.6-9.7,29.2-12.9,35.1-7
			C223.6,13.4,210.8,41,185.9,66z"/>
		<g>
			<path d="M191.6,29c0,0-1.3-3.7-6.2-3.8c-0.2,0-0.3,0-0.5,0c-3.3,0-6.4,1.6-8.6,4.1l-22.9,26.8l1.5-30.3H93.1L78.8,74.3h14.6
				l5.3-17.8h21.5l12.2-11.5h-30.3l1.9-6.4h35.4l-0.7,30.1c0,1.3,0.3,2.6,1.1,3.7c0.9,1.3,2.6,2.6,5.6,2.5c6-0.2,9-4.9,9-4.9
				l24.7-28.2l2.9,11.1l11.6-14.3L191.6,29z"/>
			<path d="M217.5,25.9C209.5,47.6,186,69.4,186,69.4s0.7,5.2,6.7,5.2s10.1-6.3,10.1-6.3l26.5-42.4C229.3,25.9,228,25.9,217.5,25.9z
				"/>
		</g>
		<g>
			<g>
				<linearGradient id="SVGID_3_" gradientUnits="userSpaceOnUse" x1="153.9968" y1="75.1524" x2="153.9968" y2="25.3858">
					<stop  offset="0" style="stop-color:#120E4B"/>
					<stop  offset="1" style="stop-color:#0D0733"/>
				</linearGradient>
				<path class="st2" d="M191.6,29.2c0,0-1.3-3.7-6.2-3.8c-0.2,0-0.3,0-0.5,0c-3.3,0-6.4,1.6-8.6,4.1l-22.9,26.8l1.5-30.3H93.1
					L78.8,74.6h14.6l5.3-17.8h21.5l12.2-11.5h-30.3l1.9-6.4h35.4L138.7,69c0,1.3,0.3,2.6,1.1,3.7c0.9,1.3,2.6,2.6,5.6,2.5
					c6-0.2,9-4.9,9-4.9l24.7-28.2l2.9,11.1l11.6-14.3L191.6,29.2z M217.4,26.1c-7.9,21.7-31.5,43.5-31.5,43.5s0.7,5.2,6.7,5.2
					s10.1-6.3,10.1-6.3l26.5-42.4C229.2,26.1,227.9,26.1,217.4,26.1z"/>
			</g>
		</g>
	</g>
	<g>
		<path class="st3" d="M26.8,111.2l-0.9,6.3H12.3l-1.2,8.8h11.7l-0.9,6.3H10.2l-2.3,16.1H0l5.3-37.4H26.8z"/>
		<path class="st3" d="M36.1,127.2l0.1,0.1c2.3-2.8,4.2-4.1,6-4.1c1.5,0,2.8,0.7,4.5,2.7l-3.5,6.8c-1.3-1.8-2.3-2.7-3.5-2.7
			c-1.7,0-3.7,2-4.5,3.6l-2.1,14.8h-7.4l3.6-24.9h7.4L36.1,127.2z"/>
		<path class="st3" d="M54.4,148.6H47l3.5-24.9h7.4L54.4,148.6z M58.9,116.8c0,2.1-1.7,3.9-3.8,3.9c-2.1,0-3.9-1.7-3.9-3.9
			s1.7-3.8,3.9-3.8C57.2,113,58.9,114.6,58.9,116.8z"/>
		<path class="st3" d="M83.6,148.2c-3.2,0.6-5.8,0.8-8.6,0.8c-8.8,0-14.4-4.6-14.4-12c0-6.7,5.1-13.8,15.5-13.8
			c1.3,0,2.6,0.2,3.7,0.3l1.7-12.3h7.4L83.6,148.2z M78.8,129.8c-0.4-0.1-1.3-0.1-1.8-0.1c-5.8,0-8.7,3.7-8.7,7.4
			c0,3.7,2.5,5.9,6.6,5.9c0.7,0,1.3-0.1,2-0.3L78.8,129.8z"/>
		<path class="st3" d="M114.5,129.2h-4c0.7,1.5,0.9,2.5,0.9,3.9c0,4.4-3.2,9.1-10.4,9.1c-3.6,0-4.5,0.3-4.5,1.3
			c0,2.9,14.9,0.1,14.9,9.6c0,4.1-2.6,8.1-12.7,8.1c-9.6,0-11.9-3.4-11.9-6.2c0-2.4,2-4.2,6.2-5.6c-2.1-1-3.4-2.8-3.4-4.6
			c0-2.6,2-4,5-4.6c-3-1.8-4.3-4.1-4.3-7.2c0-4.5,4-9.3,11-9.3h13.9L114.5,129.2z M93.4,153.8c0,1.8,1.7,2.6,5.5,2.6
			c4.2,0,5.7-0.7,5.7-2.4c0-1.9-2.2-2.1-6.7-3.1C94.5,151.4,93.4,152.5,93.4,153.8z M101.2,128.7c-2.6,0-4.1,1.9-4.1,5.4
			c0,2.2,1.4,3.5,3.5,3.5c3.2,0,4-2.8,4-5.4C104.6,130,103.4,128.7,101.2,128.7z"/>
		<path class="st3" d="M123.4,137.2c-0.1,0.2-0.1,0.6-0.1,0.8c0,3.6,2.5,5.5,5.7,5.5c2.3,0,5.2-0.8,9.2-2.5l-1.3,6.2
			c-3.1,1.1-6.1,1.8-8.7,1.8c-7.6,0-12.4-4.8-12.4-12.1c0-7.6,6-13.7,13.5-13.7c6.6,0,10.7,4.3,10.7,10.6c0,1.1-0.1,2.2-0.4,3.4
			H123.4z M132.8,132.9c0.1-0.3,0.1-0.7,0.1-0.9c0-2.1-1.5-3.6-3.7-3.6c-2.4,0-4.1,1.4-5.2,4.5H132.8z"/>
		<path class="st3" d="M168.2,111.2l3.9,22h0.1l11.9-22h3.9l5.6,22h0.1l10.1-22h8l-18.4,37.9h-3.2l-6.1-23.1l-12.6,23.1h-3.3
			l-7.6-37.9H168.2z"/>
		<path class="st3" d="M230.7,148.6h-7.4l0.3-2.3c-2.4,1.9-4.6,2.8-7.2,2.8c-5.1,0-8.7-4.4-8.7-10.7c0-7.3,4.6-15.1,18-15.1
			c3.1,0,5.3,0.2,8.4,0.8L230.7,148.6z M226,129.5c-0.4-0.1-1.4-0.1-1.6-0.1c-6.1,0-9,4.3-9,9.3c0,3,1.4,4.8,3.6,4.8
			c1.7,0,3.7-0.8,5.3-2.2L226,129.5z"/>
		<path class="st3" d="M251,118.5l-1,5.3h5.5l-1,5.5H249l-1.1,6c-0.3,1.4-0.6,3.3-0.6,4c0,1.9,0.7,3.3,2.2,3.3c1,0,2.1-0.4,4.3-1.5
			v6.5c-2.4,1.2-4.1,1.6-6.3,1.6c-5.3,0-7.7-3.8-7.7-8.3c0-0.9,0.2-2.6,0.5-4.4l1.4-7.2h-5.1l0.9-5.5h5.1l0.9-5.3H251z"/>
		<path class="st3" d="M279,130.8c-2.4-0.9-3.3-1.1-5.4-1.1c-5,0-8.8,3.3-8.8,7.6c0,3.6,2.4,5.7,6.4,5.7c2.3,0,3.8-0.3,7.1-1.6
			l-0.9,6.7c-2.1,0.5-5.2,0.9-7.7,0.9c-7.5,0-12.6-4.9-12.6-12c0-7.8,6.9-13.8,15.9-13.8c2.4,0,5.3,0.4,6.8,0.9L279,130.8z"/>
		<path class="st3" d="M292.8,126.4c2.9-2.3,5.5-3.2,8.3-3.2c4.9,0,6.9,3.2,6.9,7.7c0,1.3-0.2,2.8-0.4,3.7l-1.9,13.9h-7.4l1.9-13.5
			c0.1-0.7,0.3-2.6,0.3-2.9c0-1.9-0.7-3.4-2.3-3.4c-1.7,0-3.9,1.3-6.3,3.8l-2.2,16h-7.4l5.3-37.4h7.4L292.8,126.4z"/>
	</g>
</g>
</svg>
